<svg xmlns="http://www.w3.org/2000/svg" width="83" height="71" style=""><rect id="backgroundrect" width="100%" height="100%" x="0" y="0" fill="none" stroke="none"/><g class="currentLayer" style=""><title>Layer 1</title><g fill="#ffffff" fill-rule="evenodd" id="svg_1" class="selected" fill-opacity="1" stroke="#000000" stroke-opacity="1"><path d="M3.7820339771969262,49.58679037466622 h68.55693321970512 v-7.380713413944308 H3.7820339771969262 v7.380713413944308 zm47.46456854111704,11.073381505550666 h3.801060051538974 v3.262750549644177 H21.073338604246025 v-3.262750549644177 h3.8000960494969918 c0.6323853395408491,0 1.1423424197498566,-0.4890889885978383 1.1423424197498566,-1.0937472089059397 v-7.791215324979164 h24.088483025071234 v7.791215324979164 c0,0.6046582203081026 0.510921082250991,1.0937472089059397 1.1423424197498566,1.0937472089059397 zM3.7820339771969262,40.01765798905635 h68.55693321970512 V2.882027902060597 H3.7820339771969262 v37.13470553314207 zM2.638727555405086,0.6954580381023989 C2.007306217906221,0.6954580381023989 1.4963851356552302,1.184547026700237 1.4963851356552302,1.7892052470083386 V50.68146213742585 c0,0.6055827741617847 0.510921082250991,1.0946717627596216 1.1423424197498566,1.0946717627596216 h21.092364678588066 v6.696543562219545 h-3.801060051538974 c-0.6314213374988666,0 -1.1423424197498566,0.49186265015888375 -1.1423424197498566,1.0946717627596216 v5.450244967456056 c0,0.6028091126007384 0.510921082250991,1.0946717627596216 1.1423424197498566,1.0946717627596216 h36.260936809190596 c0.6304573354568843,0 1.1423424197498566,-0.49186265015888375 1.1423424197498566,-1.0946717627596216 V59.566424671310955 c0,-0.6028091126007384 -0.511885084292974,-1.0946717627596216 -1.1423424197498566,-1.0946717627596216 h-3.8020240535809573 v-6.696543562219545 h21.092364678588066 c0.6314213374988666,0 1.1433064217918396,-0.4900135424515201 1.1433064217918396,-1.0946717627596216 V1.7910543547157025 c0,-0.6055827741617847 -0.511885084292974,-1.0946717627596216 -1.1423424197498566,-1.0946717627596216 H2.638727555405086 z" fill="#ffffff" id="svg_2" fill-opacity="1" class="" stroke="#000000" stroke-opacity="1"/><path d="M36.49640727393205,44.459214702145225 c-0.6304573354568843,0 -1.1423424197498566,0.4900135424515201 -1.1423424197498566,1.0946717627596216 a1.1423424197498566,1.0955963166133038 0 0 0 2.2846848394997132,0 c0,-0.6037336664544206 -0.511885084292974,-1.0946717627596216 -1.1423424197498566,-1.0946717627596216 " fill="#ffffff" id="svg_3" fill-opacity="1" class="" stroke="#000000" stroke-opacity="1"/><g stroke="#000000" id="svg_4" fill="#ffffff" fill-opacity="1" class="" stroke-opacity="1"><rect stroke-width="1.641" fill="#ffffff" x="55.570149904959294" y="22.24310917780695" width="24.698695850860673" height="48.81182025425002" rx="2.4619998931884766" id="svg_5" fill-opacity="1" stroke="#000000" stroke-opacity="1"/><path stroke-width="1.458" fill="#ffffff" d="M55.481462429661015,27.62863606756459 h24.874144689287384 v0.924553853682113 H55.481462429661015 zM55.481462429661015,62.64056595265254 h24.874144689287384 v0.924553853682113 H55.481462429661015 z" id="svg_6" fill-opacity="1" stroke="#000000" stroke-opacity="1"/><ellipse stroke-width="1.01" cx="67.34736263027736" cy="66.3424874438833" rx="1.142342381106895" ry="1.0937471583752931" id="svg_7" fill="#ffffff" fill-opacity="1" stroke="#000000" stroke-opacity="1"/></g><g id="svg_8" fill="#ffffff" fill-opacity="1" class="" stroke="#000000" stroke-opacity="1"><path d="M45.16085762727527,14.918794523148025 h-0.18990840227065142 l-5.046550689781013,1.9138264771219737 l-5.713640102833249,-1.9138264771219737 l-5.331895294207981,1.7326139218002796 c-0.19087240431263452,0.0906062776608472 -0.38078080658328584,0.18213710917537643 -0.38078080658328584,0.4558050498652818 v13.766606881326664 c0,0.2745924945435879 0.18990840227065142,0.45672960371896376 0.4762170087396024,0.45672960371896376 h0.18990840227065142 l5.046550689781013,-1.9147510309756568 l5.713640102833249,1.9138264771219737 l5.331895294207981,-1.731689367946599 c0.19087240431263452,-0.09153083151452931 0.38078080658328584,-0.2736679406899056 0.38078080658328584,-0.4558050498652818 V15.374599573013306 c0,-0.2736679406899056 -0.18990840227065142,-0.4558050498652818 -0.4762170087396024,-0.4558050498652818 zM39.92439853522361,28.593870572960157 l-5.713640102833249,-1.846334045803179 V16.286209672743873 l5.713640102833249,1.846334045803179 v10.462251408266791 z" fill="#ffffff" id="svg_9" fill-opacity="1" stroke="#000000" stroke-opacity="1"/><path d="M30.78276717109881,14.918794523148025 c-1.272482695417562,0 -2.2846848394997132,0.8478158838264978 -2.2846848394997132,1.9138264771219737 c0,1.4238129346704544 2.2846848394997132,3.5567586751150886 2.2846848394997132,3.5567586751150886 s2.285648841541696,-2.1338702942983163 2.285648841541696,-3.5558341212614057 c0,-1.0669351471491582 -1.0122021440821516,-1.9147510309756568 -2.2846848394997132,-1.9147510309756568 zm0,2.7348302991916897 c-0.491641041411331,0 -0.8782058602465149,-0.33376394117924324 -0.8782058602465149,-0.7590587138730152 c0,-0.4252947726937722 0.38560081679320096,-0.7599832677266972 0.8782058602465149,-0.7599832677266972 s0.8791698622884976,0.33376394117924324 0.8791698622884976,0.7599832677266972 c0,0.4252947726937722 -0.3865648188351837,0.7590587138730152 -0.8791698622884976,0.7590587138730152 z" fill="#ffffff" id="svg_10" fill-opacity="1" stroke="#000000" stroke-opacity="1"/></g></g></g></svg>