<svg xmlns="http://www.w3.org/2000/svg" data-name="Layer 1" width="1020" height="770" style=""><rect id="backgroundrect" width="100%" height="100%" x="0" y="0" fill="none" stroke="none" class="" style=""/><title>reading</title><g class="currentLayer" style=""><title>Layer 1</title><ellipse cx="502" cy="701.6961669921875" rx="259" ry="32.5" fill="#ededed" id="svg_1" class="" fill-opacity="1"/><path d="M939.12537,423.8085682373047 L839,471.1961382373047 l88.6153,-66.2619 a500.05681,500.05681 0 0 0 -48.38385,-63.66846 L445,449.1961382373047 L837.2334,299.5726082373047 a499.98032,499.98032 0 0 0 -56.95764,-43.41419 L118.60925,362.7355682373047 a495.88,495.88 0 0 0 -108.6029,309.46057 h995.9873 A495.61329,495.61329 0 0 0 939.12537,423.8085682373047 z" fill="#f7f2e8" id="svg_2" class="" stroke-opacity="1" stroke="#f9f9f7" fill-opacity="1"/><path d="M727.12317,225.39150823730466 A495.97179,495.97179 0 0 0 509,175.1961382373047 c-153.82965,0 -291.36139,69.75269 -382.71033,179.34869 C282.71606,320.27035823730466 555.06689,260.9392982373047 727.12317,225.39150823730466 z" fill="#fcf7ed" id="svg_3" class="" fill-opacity="1"/><rect y="671.1961669921875" width="1020" height="2" fill="#2f2e41" id="svg_8"/><path d="M208,133.77086823730468 c0,-6.49686 -9.2638,-11.76359 -20.69132,-11.76359 c-0.22617,0 -0.4499300000000001,0.005580000000000003 -0.6743600000000002,0.009680000000000006 c-3.44726,-10.56733 -19.74316,-18.57 -39.32885,-18.57 c-16.66388,0 -30.94586,5.79338 -36.96,14.03014 a52.407,52.407 0 0 0 -13.618780000000001,-1.7437200000000004 C79.20451,115.73335823730469 65,123.8090682373047 65,133.77086823730468 c0,9.04918 11.72185,16.54056 27.00353,17.83751 c11.10464,2.03037 28.45034,3.337 47.945,3.337 c33.09671,0 57.3139,-6.31342 57.92127,-11.059 C203.93430999999998,141.83534823730471 208,138.0737982373047 208,133.77086823730468 z" fill="#ffffff" id="svg_11" class="" fill-opacity="1" stroke="#000000" stroke-opacity="1"/><path d="M708,137.77086823730468 c0,-6.49686 -9.2638,-11.76359 -20.69132,-11.76359 c-0.22617,0 -0.44993000000000005,0.005580000000000002 -0.6743600000000001,0.009680000000000003 c-3.44726,-10.56733 -19.74316,-18.57 -39.32885,-18.57 c-16.66388,0 -30.94586,5.79338 -36.96,14.03014 a52.407,52.407 0 0 0 -13.618780000000001,-1.7437200000000002 C579.20451,119.73335823730469 565,127.8090682373047 565,137.77086823730468 c0,9.04918 11.72185,16.54056 27.00353,17.83751 c11.10464,2.03037 28.45034,3.337 47.945,3.337 c33.09671,0 57.3139,-6.31342 57.92127,-11.059 C703.93431,145.8353482373047 708,142.0737982373047 708,137.77086823730468 z" fill="#ffffff" id="svg_12" class="" fill-opacity="1" stroke="#000000" stroke-opacity="1"/><path d="M985,59.22590823730468 c0,-11.40358 -16.26024,-20.648 -36.31833,-20.648 c-0.3970000000000003,0 -0.78973,0.00980000000000001 -1.18366,0.01700000000000001 c-6.05079,-18.54826 -34.654090000000004,-32.59493 -69.03177,-32.59493 c-29.24919,0 -54.31755,10.16878 -64.87384,24.62632 a91.9875,91.9875 0 0 0 -23.9043,-3.06065 c-30.7557,0 -55.6881,14.17477 -55.6881,31.66024 c0,15.88353 20.57472,29.03273 47.39781,31.30919 c19.49135,3.5638 49.93731,5.85718 84.15524,5.85718 c58.09283,0 100.59992,-11.0816 101.666,-19.41123 C977.8637200000001,73.38106823730467 985,66.7786082373047 985,59.22590823730468 z" fill="#ffffff" id="svg_13" class="" fill-opacity="1" stroke="#000000" stroke-opacity="1"/><path d="M570.16983,289.9073682373047 c-20.68458,-34.95054 -61.60737,-36.579390000000004 -61.60737,-36.579390000000004 s-39.87693,-5.09942 -65.45772,48.13068 c-23.84335,49.61483 -56.7502,97.519 -5.29774,109.13343 l9.29381,-28.9265 l5.7556,31.08 a201.31948,201.31948 0 0 0 22.0146,0.37625000000000003 c55.10143,-1.779 107.57721,0.5204799999999999 105.88757,-19.25223 C578.51249,367.5846282373047 590.07254,323.53676823730467 570.16983,289.9073682373047 z" fill="#000000" id="svg_14" class="" stroke-opacity="1" stroke="#ffffff" fill-opacity="1"/><path d="M434.8692,595.9858882373047 a81.59233,81.59233 0 0 1 -2.6386000000000003,11.35859 c-1.2943600000000002,3.6396800000000002 -3.29271,7.00569 -4.47619,10.68291 c-3.77241,11.72135 1.45727,24.79036 9.80989,33.83772 a55.21673,55.21673 0 0 0 26.92127,15.9859 c7.53516,1.8951200000000001 15.37,2.1678800000000003 23.13532,2.4312 c21.5027,0.72916 43.55865,1.38151 63.93373,-5.5289 a111.08156,111.08156 0 0 0 18.57467,-8.43834 a13.90664,13.90664 0 0 0 4.81973,-3.795 c1.554,-2.21241 1.7528100000000002,-5.08172 1.7392500000000002,-7.7853200000000005 c-0.04572000000000001,-9.11556 -1.89372,-18.18463 -1.45495,-27.28974 c0.24300000000000002,-5.04331 1.1869,-10.08271 0.7222900000000001,-15.11045 a27.8756,27.8756 0 0 0 -21.30394,-24.01211 c-5.78,-1.2412 -11.775,-0.56486 -17.65954,0.0009500000000000003 a450.26334,450.26334 0 0 1 -45.95953,2.055 c-15.67852,-0.10007 -31.26023,-2.49338 -46.86071,-2.7433300000000003 c-4.61351,-0.07392000000000001 -4.52031,1.3483800000000001 -5.98909,5.81341 A108.7667,108.7667 0 0 0 434.8692,595.9858882373047 z" fill="#ceeff2" id="svg_15" class="" fill-opacity="1" stroke="#000000" stroke-opacity="1"/><path d="M479.36352999999997,370.9004082373047 c-0.7534500000000001,3.9451 -1.5678100000000001,8.0345 -3.9386,11.27655 c-2.72766,3.73008 -7.175,5.86135 -10.10938,9.4311 c-4.41683,5.37321 -4.67035,12.93418 -4.68856,19.88971 c-0.016770000000000004,6.40757 0.11338000000000001,13.24193 3.6866000000000003,18.5607 c2.319,3.45191 5.84767,5.872 9.29623,8.196 c13.40027,9.03061 27.88067,18.22335 44.0371,18.52117 c6.69421,0.12339000000000001 13.87191,-1.6054 18.27662,-6.64783 a27.442,27.442 0 0 0 4.42506,-7.89466 a104.83543,104.83543 0 0 0 7.42092,-31.91454 c0.36794000000000004,-5.157 0.3327800000000001,-10.46448 -1.4127,-15.33108 c-1.96273,-5.47232 -5.9313400000000005,-9.97494 -8.55423,-15.1633 a33.75668,33.75668 0 0 1 -3.24916,-19.97556 a2.15614,2.15614 0 0 0 -0.11400000000000002,-1.44765 a2.10871,2.10871 0 0 0 -1.73778,-0.70415 l-32.0356,-2.3062 a69.71286,69.71286 0 0 1 -8.89467,-1.0175400000000001 c-1.727,-0.35115 -6.28826,-2.80383 -7.93493,-2.15164 C480.78831,353.4287582373047 479.98833,367.62889823730467 479.36352999999997,370.9004082373047 z" fill="#f7cfcf" id="svg_16" class="" fill-opacity="1"/><path d="M478.93495853736874,376.1861223867798 c-0.7534500000000006,3.9451 -1.5678100000000001,8.0345 -3.9386,11.27655 c-2.72766,3.73008 -7.175,5.86135 -10.10938,9.4311 c-4.41683,5.37321 -4.67035,12.93418 -4.68856,19.88971 c-0.016770000000000045,6.40757 0.11338000000000002,13.24193 3.6866000000000003,18.5607 c2.319,3.45191 5.84767,5.872 9.29623,8.196 c13.40027,9.03061 27.88067,18.22335 44.0371,18.52117 c6.69421,0.12339000000000012 13.87191,-1.6054 18.27662,-6.64783 a27.442,27.442 0 0 0 4.42506,-7.89466 a104.83543,104.83543 0 0 0 7.42092,-31.91454 c0.3679400000000003,-5.157 0.3327800000000009,-10.46448 -1.4127,-15.33108 c-1.96273,-5.47232 -5.9313400000000005,-9.97494 -8.55423,-15.1633 a33.75668,33.75668 0 0 1 -3.24916,-19.97556 a2.15614,2.15614 0 0 0 -0.11400000000000018,-1.44765 a2.10871,2.10871 0 0 0 -1.73778,-0.70415 l-32.0356,-2.3062 a69.71286,69.71286 0 0 1 -8.89467,-1.0175400000000001 c-1.727,-0.35115 -6.28826,-2.80383 -7.93493,-2.15164 C480.3597385373688,358.7144723867798 479.5597585373688,372.91461238677977 478.93495853736874,376.1861223867798 z" opacity="0.1" id="svg_17" class="" fill="#919191" fill-opacity="1"/><circle cx="511.5384521484375" cy="329.02947998046875" r="47" fill="#f7cfcf" id="svg_18" class="" stroke-opacity="1" stroke="#000000" fill-opacity="1"/><path d="M485.95552,433.46479823730465 c2.44964,2.56043 5.04538,5.09564 8.25532,6.59659 a25.94016,25.94016 0 0 0 10.31327,1.9636500000000001 c8.47219,0.23832 17.65661,-1.31407 23.55028,-7.405 c7.59724,-7.85152 7.347,-20.5153 13.302,-29.67516 a6.61046,6.61046 0 0 1 1.9189,-2.09865 a6.22017,6.22017 0 0 1 3.26377,-0.7504000000000001 c7.52091,-0.07031 14.07236,4.80755 19.985,9.45614 c2.64872,2.08246 5.36334,4.23989 7.03434,7.16566 a24.28738,24.28738 0 0 1 2.3721200000000002,7.26441 c2.93413,14.32315 3.88438,28.96808 4.82746,43.55822 c0.5209,8.05879 1.04205,16.12534 1.00335,24.20086 c-0.12754000000000001,26.60541 -6.31151,52.76588 -12.461,78.65115 c-0.79236,3.3353200000000003 -1.8767,7.06341 -4.90983,8.661 a12.107,12.107 0 0 1 -4.28426,1.04567 c-17.61343,2.06856 -35.26331,4.13962 -52.99569,4.41272 q-10.38,0.15987 -20.751,-0.5025299999999999 a11.17843,11.17843 0 0 1 -3.49561,-0.6093900000000001 a9.85754,9.85754 0 0 1 -3.81088,-3.23626 c-9.591660000000001,-12.08676 -10.15782,-28.79689 -10.09652,-44.22693 q0.22485000000000002,-56.58768 4.0436,-113.08493 c0.21020000000000003,-3.10882 0.25609,-6.88444 -1.984,-9.33 C475.06953999999996,421.9786682373047 480.67962,427.9502782373047 485.95552,433.46479823730465 z" fill="#f9f5f1" id="svg_19" class="" fill-opacity="1" stroke="#000000" stroke-opacity="1"/><path d="M476,379.1961382373047 c-1.5874000000000001,2.87347 -13.29062,10.0088 -15.55005,12.39037 c-12.62376,13.3062 -35.66394,12.8069 -47.20928,27.0589 c-4.062,5.01431 -6.17245,11.31471 -7.724600000000001,17.57843 c-2.19524,8.85894 -3.36741,18.52042 0.31000000000000005,26.87363 c3.5385299999999997,8.03766 10.98753,13.59445 16.04492,20.77415 c5.55294,7.88321 8.04966,17.45505 10.44233,26.79611 c1.7666600000000001,6.8971 3.54793,13.965 2.85991,21.05148 c-0.78227,8.05713 -4.68119,15.43462 -6.98322,23.19541 s-2.69936,17.004 2.62329,23.10307 c3.91038,4.4808 10.0439,6.25715 15.9065,7.25643 a182.74446,182.74446 0 0 0 22.67164,1.9736799999999999 c6.7017500000000005,0.29610000000000003 14.089,0.35367000000000004 19.241,-3.94264 c4.06516,-3.39 5.832,-8.89114 6.06069,-14.17937 s-0.8715700000000001,-10.529630000000001 -1.56075,-15.77774 c-0.71443,-5.44045 -0.989,-10.9283 -1.2187000000000001,-16.41065 q-1.54608,-36.89792 -0.42194000000000004,-73.84327 c0.15611000000000003,-5.12521 0.3454400000000001,-10.31336 -0.7474000000000001,-15.32313 c-1.4372800000000001,-6.5887 -4.99817,-12.477 -7.9694,-18.53076 c-5.89754,-12.01606 -8.68662,-23.68875 -7.775,-37.0441 C475.89984000000004,379.01382823730466 481.64862000000005,368.9708582373047 476,379.1961382373047 z" fill="#ffffff" id="svg_20" class="" fill-opacity="1" stroke="#000000" stroke-opacity="1"/><path d="M541,380.1961382373047 c2.4178800000000003,2.48505 10.63379,3.30428 13.70952,4.90469 a48.03632,48.03632 0 0 0 9.01222,3.12032 a117,117 0 0 1 31.6598,14.53071 a19.214,19.214 0 0 1 5.2944,4.5731 c1.72071,2.39375 2.34529,5.38064 2.9286700000000003,8.27037 c1.506,7.46012 3.01958,15.01018 2.68115,22.61327 c-0.35924,8.0706 -2.79025,15.887 -5.202,23.59719 L592.07249,490.61506823730474 c-6.72633,21.50411 -13.49532,43.21993 -15.388,65.67185 A154.47715,154.47715 0 0 0 578.071,593.5860682373047 c0.19800000000000006,1.23973 0.3641200000000001,2.6607900000000004 -0.4545200000000001,3.6126300000000002 a3.55808,3.55808 0 0 1 -2.20672,1.01536 c-4.34926,0.6800600000000002 -8.55828,-1.53755 -12.49883,-3.49982 a138.40992,138.40992 0 0 0 -38.15515,-12.48464 a88.70243,88.70243 0 0 0 11.85086,-24.42987 a147.8524,147.8524 0 0 0 3.58055,-16.8013 l4.192,-24.24515 a238.23887,238.23887 0 0 0 3.596,-26.81113 a33.56415,33.56415 0 0 0 -0.5834900000000002,-10.09976 a48.995,48.995 0 0 0 -3.82863,-9.10817 c-6.90856,-14.37055 -10.15009,-30.76992 -7.43183,-46.48144 c1.18959,-6.8758300000000006 3.5013199999999998,-13.760860000000001 2.53736,-20.67192 c-0.92681,-6.64471 0.0364,-11.80881 -1.6684700000000001,-18.38472 C530,358.1961382373047 536.45114,375.5209682373047 541,380.1961382373047 z" fill="#ffffff" id="svg_21" class="" fill-opacity="1" stroke="#000000" stroke-opacity="1"/><path d="M413.12112,441.36640823730465 c-3.14954,6.5357400000000005 -8.41506,12.10359 -10.2072,19.13379 a41.80169,41.80169 0 0 0 -0.8900000000000001,10.00043 c-0.04247000000000001,5.05966 -0.07,10.22192 1.48359,15.03733 c1.00025,3.1002 2.62754,5.95927 3.79986,8.99858 a32.62833,32.62833 0 0 1 2.13731,13.33147 c-0.31629,6.29555 -2.45505,12.40665 -2.6222000000000003,18.70793 c-0.26285000000000003,9.90929 4.32048,19.22484 8.79273,28.07142 a20.63627,20.63627 0 0 1 29.99568,-9.82022 c1.1797900000000001,-1.08956 1.30578,-2.87874 1.35194,-4.484 q0.4958700000000001,-17.24446 0.9566100000000001,-34.48991 c0.48410000000000003,-17.78081 0.94528,-35.79922 -3.145,-53.10995 c-1.8467500000000001,-7.81584 -4.72029,-15.60148 -9.9881,-21.66364 c-2.77379,-3.192 -12.19009,-11.59994 -16.74335,-8.024 c-2.04763,1.6081 -1.56906,5.98554 -1.89351,8.20217 A34.79828,34.79828 0 0 1 413.12112,441.36640823730465 z" fill="#ffffff" id="svg_22" class="" fill-opacity="1"/><path d="M608.20643,422.5319682373047 c1.48963,4.63871 1.5787400000000003,9.59525 1.6084100000000001,14.46719 q0.09078000000000003,14.90735 -0.39513000000000004,29.81076 c-0.16586000000000004,5.08639 -0.39423,10.24286 -1.93649,15.09264 c-1.0171000000000001,3.19837 -2.5866800000000003,6.19763 -3.63709,9.38522 c-3.148,9.553 -1.428,19.91418 -1.1581000000000001,29.9689 a34.05159,34.05159 0 0 1 -0.8246600000000001,9.69448 c-1.6613200000000001,6.23314 -6.126,11.26971 -9.24211,16.91788 c-2.95947,5.36422 -4.74519,11.37692 -8.27977,16.38092 s-9.65328,8.96906 -15.584,7.4329 c-4.49363,-1.16394 -7.68663,-5.14144 -9.8952,-9.22428 a45.243900000000004,45.243900000000004 0 0 1 -4.67794,-29.34817 c2.21729,-12.20357 9.38561,-23.02973 11.97082,-35.16069 c3.55006,-16.6585 -1.84543,-33.84876 -1.68486,-50.88057 a24.59406,24.59406 0 0 1 1.07216,-7.88708 c1.356,-3.8904 4.26837,-6.99717 6.95885,-10.11731 a127.73672,127.73672 0 0 0 9.35266,-12.27427 c1.9261300000000001,-2.87257 4.54212,-10.26079 7.957,-10.8751 C597.43514,404.5438582373047 606.31489,416.6416782373047 608.20643,422.5319682373047 z" fill="#ffffff" id="svg_23" class="" fill-opacity="1"/><path d="M372.56045,587.5772682373047 a46.39142,46.39142 0 0 0 -12.9047,-1.37183 a32.20806,32.20806 0 0 0 -29.90214,37.96856 a54.09778,54.09778 0 0 0 5.11352,13.97318 c3.4223500000000002,6.94528 7.527,13.87462 13.86266,18.32532 c3.7062,2.6035500000000003 7.99568,4.22683 12.23418,5.82355 l33.3687,12.57057 c4.90891,1.8492700000000002 9.81855,3.69881 14.77606,5.41356 a289.01937,289.01937 0 0 0 77.17719,15.343 c8.01242,0.47712000000000016 16.14614,0.6098900000000006 23.96273,-1.2142300000000001 c1.85493,-0.4328800000000003 3.83359,-1.07818 4.90754,-2.65132 a8.40487,8.40487 0 0 0 1.0965,-3.62168 l2.05332,-14.37463 c0.28912000000000015,-2.024 0.5673,-4.15447 -0.17452,-6.05972 c-0.9406200000000003,-2.41584 -3.2984,-3.9355700000000002 -5.54649,-5.22676 c-21.93756,-12.59985 -47.55229,-19.55109 -66.01744,-36.84417 c-4.347,-4.07107 -7.98474,-10.52413 -13.26629,-13.28952 c-5.98921,-3.13593 -13.04264,-4.9257100000000005 -19.23332,-7.81542 C400.53437,598.2084582373047 387.22826,590.9489582373047 372.56045,587.5772682373047 z" fill="#ceeff2" id="svg_24" class="" fill-opacity="1" stroke="#000000" stroke-opacity="1"/><path d="M406.87425,607.9563482373047 C418.66868,611.6520682373047 468.46479999999997,637.2564682373047 477,646.1961382373047 c-1.14407,0.41219 -39.961,-21.34142 -41.12578,-21.691 c-10.58756,-3.17755 -21.234,-6.3759500000000005 -31.28844,-11.02616 c-2.02267,-0.9355 -13.14053,-5.3325700000000005 -12.637,-7.88464 C392.51691,602.7145182373047 404.78042,607.3002482373047 406.87425,607.9563482373047 z" opacity="0.1" id="svg_25" class="" fill="#ffffff" fill-opacity="1"/><path d="M554.0172,704.0782582373047 a2.77052,2.77052 0 0 0 1.86971,-0.55026 a2.8879,2.8879 0 0 0 0.58442,-2.15155 q-0.027480000000000008,-9.79168 -0.05494000000000001,-19.58335 c-5.63143,-2.68309 -11.93057,-3.54312 -18.11352,-4.36957 l-28.84866,-3.85608 c0.6628100000000001,0.08860000000000003 -4.51064,12.42534 -3.7174,14.07234 c1.39811,2.9028400000000003 12.08274,5.47555 15.09819,6.84615 C531.31779,699.2506182373047 542.21076,704.4888182373047 554.0172,704.0782582373047 z" fill="#f7cfcf" id="svg_26" class="" fill-opacity="1" stroke="#000000" stroke-opacity="1"/><path d="M463.505,681.7253282373047 c-5.44688,0.86756 -11.52631,1.6344500000000002 -15.0538,5.8745 c-4.47332,5.37695 -2.569,13.39264 -0.43507000000000007,20.05362 a8.635,8.635 0 0 0 1.85555,3.649 c1.4563000000000001,1.4366700000000001 3.68794,1.64716 5.72955,1.77644 c4.96748,0.31454000000000004 10.25388,0.561 14.59415,-1.8756000000000002 a63.96587,63.96587 0 0 0 5.66923,-4.214 a36.34812,36.34812 0 0 1 10.42334,-4.76541 a105.40148,105.40148 0 0 1 20.92307,-4.31189 a32.54116,32.54116 0 0 0 8.24247,-1.45295 c2.6188900000000004,-0.98647 5.0438600000000005,-2.94254 5.80466,-5.63567 c1.00536,-3.55885 -1.063,-7.1872300000000005 -3.04679,-10.30832 c-2.47114,-3.88793 -5.08912,-7.9817 -8.77372,-10.84384 c-5.37539,-4.17552 -8.03443,-0.97015 -13.44912,1.70186 A114.10822,114.10822 0 0 1 463.505,681.7253282373047 z" fill="#f7cfcf" id="svg_27" class="" fill-opacity="1" stroke="#000000" stroke-opacity="1"/><path d="M449.27063999999996,686.6315982373047 l-34.5857,-10.22233 c-4.20627,-1.24323 -8.4844,-2.49733 -12.87056,-2.4940800000000003 s-8.97517,1.4414 -11.81981,4.78 c-2.68188,3.1476100000000002 -3.44949,7.44952 -4.11808,11.53031 l-1.4302000000000001,8.72942 c-0.7268100000000001,4.43619 -1.45495,8.9577 -0.8007700000000001,13.40518 s2.92456,8.8908 6.87078,11.0438 c4.786,2.6111500000000003 10.65182,1.3357800000000002 15.99326,0.24359000000000003 a174.121,174.121 0 0 1 32.77509,-3.51465 c4.13972,-0.04951000000000001 8.48179,0.0023500000000000005 12.13981,-1.93638 c4.34827,-2.30455 6.94966,-7.1774000000000004 7.397,-12.07825 C459.50199999999995,698.6613582373047 457.01653,688.9210682373047 449.27063999999996,686.6315982373047 z" fill="#000000" id="svg_28" class="" fill-opacity="1" stroke="#ffffff" stroke-opacity="1"/><path d="M568.6123,677.7234782373047 c4.48352,-0.7858 8.44047,-3.334 12.736650000000001,-4.838 c6.04709,-2.11708 12.60022,-2.11705 19.00716,-2.09367 c2.352,0.008580000000000006 4.85661,0.06132000000000002 6.81443,1.36473 c2.82215,1.8788400000000005 3.54546,5.63881 4.02533,8.995 l2.8952400000000003,20.24962 c0.54457,3.8087400000000002 1.08591,7.71939 0.23651000000000005,11.47194 s-3.40722,7.37019 -7.13092,8.33824 c-4.52256,1.17574 -8.95613,-1.71327 -13.22628,-3.6110700000000002 c-10.67289,-4.74341 -23.0795,-3.531 -34.20791,-7.07631 c-2.06521,-0.6579300000000002 -4.27706,-1.6640000000000001 -5.11956,-3.661 a8.32987,8.32987 0 0 1 -0.3983000000000002,-3.49928 c0.19057000000000004,-6.50883 -1.1822300000000001,-15.39675 0.77738,-21.617350000000002 C556.78436,676.1519982373047 563.60755,677.7234782373047 568.6123,677.7234782373047 z" fill="#000000" id="svg_29" class="" fill-opacity="1" stroke="#ffffff" stroke-opacity="1"/><path d="M640.80315,582.4268382373047 a60.05931,60.05931 0 0 1 21.157,-1.4455 c5.65608,0.6231200000000002 11.48358,2.197 15.61317,6.11184 c5.02628,4.76494 6.64124,12.134 6.776,19.05863 a59.5434,59.5434 0 0 1 -12.94186,38.027 a34.50425,34.50425 0 0 1 -7.39914,7.12284 a48.70264,48.70264 0 0 1 -9.62673,4.63914 l-74.72781,29.47483 c-19.65925,7.75419 -39.38787,15.53083 -59.89351,20.642780000000002 a4.66784,4.66784 0 0 1 -6.28108,-2.2772 a154.81912,154.81912 0 0 1 -16.37825,-29.96006 a2.01884,2.01884 0 0 1 0.8922700000000002,-3.18318 l52.85558,-30.36919 c3.786,-2.17535 7.61432,-4.382 10.758000000000001,-7.41244 a26.70785,26.70785 0 0 0 5.52323,-7.68946 c1.09561,-2.28839 1.19782,-7.68865 2.59727,-9.38012 c1.37018,-1.6560900000000005 6.05736,-1.7882500000000001 8.22214,-2.43962 a74.60686,74.60686 0 0 0 8.95108,-3.38364 c11.82339,-5.2894 22.35194,-12.97463 33.68626,-19.168 A86.43316,86.43316 0 0 1 640.80315,582.4268382373047 z" fill="#ceeff2" id="svg_30" class="" fill-opacity="1" stroke="#000000" stroke-opacity="1"/><path d="M610.83876,603.1064382373047 C601.758,609.9267282373047 590,616.1961382373047 581,623.1961382373047 c-3.0716,2.3890000000000002 -54.276,31.17666 -55,35 c8.39649,1.41476 61.883,-36.00308 69.53554,-39.73678 s14.43633,-8.999 21.15844,-14.22547 c1.7130800000000002,-1.3319200000000002 8.97307,-5.33589 4.05538,-6.824 C617.97906,596.5716182373047 612.884,601.7429582373047 610.83876,603.1064382373047 z" opacity="0.1" id="svg_31" class="" fill="#ffffff" fill-opacity="1"/><polygon points="557.5364990234375,297.0838928222656 516.5396118164062,275.3609924316406 459.92596435546875,284.2472839355469 448.2120056152344,336.5814514160156 477.3701477050781,335.44696044921875 485.5157470703125,316.2197570800781 485.5157470703125,335.1299743652344 498.9697570800781,334.6058349609375 506.7787170410156,303.9966125488281 511.6591796875,336.5814514160156 559.4884643554688,335.5936279296875 557.5364990234375,297.0838928222656 " fill="#000000" id="svg_32" class="" stroke-opacity="1" stroke="#000000" fill-opacity="1"/><rect x="463" y="391.1961364746094" width="87" height="105" fill="#000000" id="svg_33" class="" stroke-opacity="1" stroke="#050505" fill-opacity="1"/><path d="M423.69854,573.8187082373047 c1.9975399999999999,2.98208 4.3380600000000005,5.899 7.54661,7.5077300000000005 a14.7585,14.7585 0 0 0 12.973,-0.34770000000000006 a22.835,22.835 0 0 0 9.36212,-9.38655 c4.39391,-7.759 5.30389,-17.04346 4.75559,-25.94335 s-2.44861,-17.66346 -3.28967,-26.54046 c-0.6114,-6.453 -0.6611200000000002,-12.94443 -0.71036,-19.42612 a6.46016,6.46016 0 0 1 0.81637,-3.92869 c0.97322,-1.3290000000000002 2.7551300000000003,-1.6951800000000001 4.33416,-2.16433 c8.867890000000001,-2.63479 14.75415,-10.94673 18.97418,-19.17917 c2.81783,-5.497 5.26817,-11.506 4.7247900000000005,-17.65927 s-4.96629,-12.3521 -11.11151,-12.97981 c-5.06629,-0.5175099999999999 -9.74423,2.7003500000000003 -13.39877,6.2471 a57.45477,57.45477 0 0 0 -16.82267,33.62021 c-0.80222,6.25647 -0.5724400000000001,12.6832 -2.27415,18.757 c-3.63348,12.96874 -15.00193,20.91995 -20.6673,32.5895 C412.66827,547.8433782373047 416.11372,562.4414782373046 423.69854,573.8187082373047 z" fill="#f7cfcf" id="svg_34" class="" fill-opacity="1" stroke="#000000" stroke-opacity="1"/><path d="M590.9919,524.2727582373047 a24.50892,24.50892 0 0 1 -13.74441,13.20664 a18.98254,18.98254 0 0 1 -11.94829,0.7317800000000001 a13.2493,13.2493 0 0 1 -8.75287,-7.829 a21.0904,21.0904 0 0 1 -0.98593,-5.88065 c-0.56854,-8.74559 -0.3488500000000001,-17.75765 2.8278600000000003,-25.92569 c1.22525,-3.15042 2.8772900000000003,-6.1382 3.8442600000000002,-9.37724 a47.02819,47.02819 0 0 0 1.44754,-11.44411 l1.04429,-23.86232 a15.52993,15.52993 0 0 0 -0.35446000000000005,-5.17407 c-1.04163,-3.45274 -4.26857,-5.69655 -7.22943,-7.75561 c-7.15065,-4.97275 -14.21695,-10.77542 -17.68191,-18.7663 a13.16185,13.16185 0 0 1 -1.2218,-7.77332 c0.977,-4.73839 5.75891,-7.806 10.48531,-8.83943 a23.45383,23.45383 0 0 1 28.118,18.89993 c0.46761,2.6929100000000004 0.46118000000000003,5.44363 0.7348800000000001,8.1631 c0.58057,5.76865 2.4119,11.32931 3.55756,17.0128 c2.822,13.99961 1.35971,28.47117 4.15033,42.4684 C587.61613,503.8309182373047 596.41438,511.4673982373047 590.9919,524.2727582373047 z" fill="#f7cfcf" id="svg_35" class="" fill-opacity="1" stroke="#000000" stroke-opacity="1"/><polyline fill="none" stroke="#000000" stroke-dashoffset="" fill-rule="nonzero" marker-start="" marker-mid="" marker-end="" id="svg_4" points="603,415.321533203125 603,415.321533203125 604,416.321533203125 604,417.321533203125 604,417.321533203125 604,417.321533203125 604,418.321533203125 605,418.321533203125 605,419.321533203125 605,419.321533203125 605,419.321533203125 605,420.321533203125 605,420.321533203125 605,420.321533203125 605,421.321533203125 605,421.321533203125 605,422.321533203125 606,422.321533203125 606,423.321533203125 606,423.321533203125 606,424.321533203125 606,424.321533203125 606,425.321533203125 606,425.321533203125 606,426.321533203125 606,426.321533203125 607,427.321533203125 607,428.321533203125 607,429.321533203125 607,429.321533203125 607,430.321533203125 607,430.321533203125 607,431.321533203125 607,432.321533203125 607,433.321533203125 607,434.321533203125 607,435.321533203125 607,436.321533203125 607,437.321533203125 607,438.321533203125 607,440.321533203125 607,441.321533203125 607,442.321533203125 607,443.321533203125 607,444.321533203125 607,445.321533203125 607,445.321533203125 607,446.321533203125 607,448.321533203125 607,448.321533203125 607,449.321533203125 607,450.321533203125 607,452.321533203125 607,453.321533203125 607,453.321533203125 607,454.321533203125 607,456.321533203125 607,457.321533203125 607,458.321533203125 607,459.321533203125 607,460.321533203125 607,461.321533203125 607,463.321533203125 607,464.321533203125 607,465.321533203125 606,467.321533203125 606,469.321533203125 606,471.321533203125 606,472.321533203125 606,474.321533203125 606,476.321533203125 606,477.321533203125 606,478.321533203125 606,480.321533203125 605,481.321533203125 605,482.321533203125 605,484.321533203125 605,485.321533203125 604,487.321533203125 603,489.321533203125 602,491.321533203125 602,493.321533203125 602,494.321533203125 601,495.321533203125 601,496.321533203125 601,496.321533203125 601,497.321533203125 601,498.321533203125 600,499.321533203125 600,499.321533203125 600,500.321533203125 600,501.321533203125 600,501.321533203125 600,502.321533203125 600,502.321533203125 600,502.321533203125 600,503.321533203125 600,505.321533203125 600,507.321533203125 600,508.321533203125 600,509.321533203125 600,510.321533203125 600,511.321533203125 600,512.321533203125 600,512.321533203125 600,513.321533203125 600,514.321533203125 600,514.321533203125 600,515.321533203125 600,515.321533203125 600,516.321533203125 600,517.321533203125 600,518.321533203125 600,519.321533203125 600,520.321533203125 600,521.321533203125 600,522.321533203125 600,523.321533203125 600,524.321533203125 600,525.321533203125 600,526.321533203125 600,527.321533203125 599,528.321533203125 599,530.321533203125 599,531.321533203125 599,532.321533203125 599,533.321533203125 598,533.321533203125 598,534.321533203125 598,534.321533203125 598,534.321533203125 598,534.321533203125 598,535.321533203125 598,536.321533203125 598,536.321533203125 597,536.321533203125 597,537.321533203125 597,537.321533203125 597,538.321533203125 596,538.321533203125 596,539.321533203125 596,539.321533203125 595,540.321533203125 595,540.321533203125 595,541.321533203125 594,542.321533203125 594,542.321533203125 594,542.321533203125 594,542.321533203125 593,543.321533203125 593,543.321533203125 593,544.321533203125 593,544.321533203125 592,545.321533203125 592,546.321533203125 591,547.321533203125 591,547.321533203125 591,548.321533203125 590,548.321533203125 590,549.321533203125 590,549.321533203125 590,550.321533203125 589,550.321533203125 589,551.321533203125 589,552.321533203125 589,552.321533203125 588,553.321533203125 588,554.321533203125 587,554.321533203125 587,555.321533203125 587,556.321533203125 586,557.321533203125 586,557.321533203125 586,558.321533203125 586,558.321533203125 586,558.321533203125 586,558.321533203125 585,559.321533203125 585,560.321533203125 585,560.321533203125 585,561.321533203125 585,561.321533203125 584,562.321533203125 584,562.321533203125 584,563.321533203125 584,563.321533203125 584,564.321533203125 583,564.321533203125 583,565.321533203125 583,565.321533203125 582,566.321533203125 582,566.321533203125 582,566.321533203125 582,567.321533203125 581,567.321533203125 581,568.321533203125 580,568.321533203125 579,569.321533203125 578,569.321533203125 577,569.321533203125 576,569.321533203125 576,569.321533203125 576,569.321533203125 575,569.321533203125 575,569.321533203125 574,569.321533203125 573,569.321533203125 572,569.321533203125 571,569.321533203125 571,569.321533203125 570,569.321533203125 570,569.321533203125 569,569.321533203125 569,569.321533203125 569,569.321533203125 568,569.321533203125 568,569.321533203125 567,569.321533203125 566,568.321533203125 566,568.321533203125 566,568.321533203125 565,568.321533203125 565,567.321533203125 565,567.321533203125 564,567.321533203125 564,566.321533203125 563,566.321533203125 563,565.321533203125 562,565.321533203125 562,565.321533203125 562,564.321533203125 561,564.321533203125 561,563.321533203125 560,562.321533203125 560,562.321533203125 559,561.321533203125 559,560.321533203125 559,559.321533203125 558,559.321533203125 558,559.321533203125 558,557.321533203125 558,557.321533203125 557,557.321533203125 557,556.321533203125 557,556.321533203125 557,556.321533203125 556,555.321533203125 556,555.321533203125 556,554.321533203125 556,554.321533203125 556,554.321533203125 555,553.321533203125 555,553.321533203125 555,553.321533203125 555,552.321533203125 554,552.321533203125 554,551.321533203125 553,551.321533203125 553,550.321533203125 553,550.321533203125 552,549.321533203125 552,548.321533203125 552,547.321533203125 551,547.321533203125 551,546.321533203125 551,545.321533203125 550,544.321533203125 550,543.321533203125 550,543.321533203125 549,542.321533203125 549,542.321533203125 549,541.321533203125 549,540.321533203125 549,540.321533203125 549,539.321533203125 549,539.321533203125 549,538.321533203125 549,538.321533203125 549,537.321533203125 548,537.321533203125 548,536.321533203125 548,535.321533203125 548,534.321533203125 548,534.321533203125 548,533.321533203125 548,533.321533203125 549,532.321533203125 549,531.321533203125 549,531.321533203125 549,530.321533203125 549,529.321533203125 549,529.321533203125 549,529.321533203125 549,528.321533203125 549,528.321533203125 549,527.321533203125 549,526.321533203125 549,525.321533203125 549,524.321533203125 549,524.321533203125 549,524.321533203125 549,523.321533203125 549,523.321533203125 549,523.321533203125 549,522.321533203125 549,521.321533203125 549,519.321533203125 549,518.321533203125 549,517.321533203125 549,516.321533203125 550,516.321533203125 550,515.321533203125 550,514.321533203125 550,514.321533203125 550,513.321533203125 551,513.321533203125 551,512.321533203125 551,511.321533203125 551,511.321533203125 552,510.321533203125 552,510.321533203125 552,509.321533203125 552,508.321533203125 553,508.321533203125 553,507.321533203125 553,507.321533203125 554,507.321533203125 554,506.321533203125 554,506.321533203125 554,506.321533203125 554,506.321533203125 554,505.321533203125 554,505.321533203125 555,504.321533203125 " style="color: rgb(249, 245, 241);" class=""/><polyline fill="none" stroke="#000000" stroke-dashoffset="" fill-rule="nonzero" marker-start="" marker-mid="" marker-end="" id="svg_5" points="405,456.321533203125 405,456.321533203125 405,456.321533203125 404,457.321533203125 404,458.321533203125 404,459.321533203125 404,460.321533203125 404,461.321533203125 404,462.321533203125 403,462.321533203125 403,463.321533203125 403,464.321533203125 403,464.321533203125 403,464.321533203125 403,465.321533203125 403,465.321533203125 403,466.321533203125 403,467.321533203125 403,467.321533203125 403,468.321533203125 403,468.321533203125 403,469.321533203125 403,469.321533203125 403,469.321533203125 403,470.321533203125 403,470.321533203125 403,471.321533203125 403,472.321533203125 403,473.321533203125 403,474.321533203125 403,474.321533203125 403,475.321533203125 403,475.321533203125 403,476.321533203125 403,477.321533203125 403,478.321533203125 404,479.321533203125 404,480.321533203125 404,481.321533203125 404,482.321533203125 404,482.321533203125 404,483.321533203125 404,484.321533203125 405,484.321533203125 405,485.321533203125 405,486.321533203125 405,487.321533203125 405,487.321533203125 405,488.321533203125 405,489.321533203125 405,490.321533203125 405,490.321533203125 406,491.321533203125 406,492.321533203125 406,493.321533203125 406,494.321533203125 406,494.321533203125 406,495.321533203125 406,495.321533203125 406,496.321533203125 406,497.321533203125 407,498.321533203125 407,498.321533203125 407,499.321533203125 407,499.321533203125 407,500.321533203125 407,500.321533203125 407,501.321533203125 407,501.321533203125 407,502.321533203125 407,502.321533203125 408,503.321533203125 408,503.321533203125 408,503.321533203125 408,504.321533203125 408,504.321533203125 408,505.321533203125 408,505.321533203125 408,506.321533203125 409,507.321533203125 409,508.321533203125 409,508.321533203125 409,509.321533203125 409,510.321533203125 409,511.321533203125 409,511.321533203125 409,512.321533203125 409,513.321533203125 409,513.321533203125 409,513.321533203125 409,514.321533203125 409,514.321533203125 409,515.321533203125 409,516.321533203125 409,516.321533203125 409,517.321533203125 409,517.321533203125 409,518.321533203125 409,518.321533203125 409,519.321533203125 409,520.321533203125 409,521.321533203125 409,522.321533203125 409,523.321533203125 409,524.321533203125 409,524.321533203125 409,525.321533203125 409,525.321533203125 408,526.321533203125 408,526.321533203125 408,527.321533203125 408,527.321533203125 408,528.321533203125 408,528.321533203125 408,529.321533203125 408,529.321533203125 408,530.321533203125 408,531.321533203125 408,532.321533203125 408,533.321533203125 408,533.321533203125 408,534.321533203125 408,534.321533203125 408,534.321533203125 408,535.321533203125 408,535.321533203125 408,536.321533203125 409,537.321533203125 409,538.321533203125 409,539.321533203125 409,539.321533203125 409,539.321533203125 409,539.321533203125 410,540.321533203125 411,541.321533203125 411,542.321533203125 412,542.321533203125 412,543.321533203125 412,543.321533203125 412,543.321533203125 413,544.321533203125 414,545.321533203125 414,545.321533203125 414,546.321533203125 " style="color: rgb(249, 245, 241);"/><polyline fill="none" stroke="#000000" stroke-dashoffset="" fill-rule="nonzero" marker-start="" marker-mid="" marker-end="" id="svg_6" points="442,444.321533203125 443,444.321533203125 443,444.321533203125 443,445.321533203125 443,445.321533203125 443,445.321533203125 443,446.321533203125 443,446.321533203125 443,446.321533203125 443,447.321533203125 443,447.321533203125 443,448.321533203125 443,448.321533203125 443,449.321533203125 443,450.321533203125 443,450.321533203125 443,450.321533203125 443,451.321533203125 443,451.321533203125 443,452.321533203125 443,452.321533203125 443,453.321533203125 443,453.321533203125 443,454.321533203125 443,455.321533203125 443,455.321533203125 443,456.321533203125 443,457.321533203125 443,457.321533203125 443,458.321533203125 443,459.321533203125 443,459.321533203125 443,459.321533203125 443,460.321533203125 443,460.321533203125 443,461.321533203125 443,461.321533203125 443,462.321533203125 443,462.321533203125 443,462.321533203125 444,463.321533203125 444,463.321533203125 444,464.321533203125 444,464.321533203125 444,465.321533203125 444,466.321533203125 444,466.321533203125 444,466.321533203125 444,467.321533203125 444,467.321533203125 444,467.321533203125 444,468.321533203125 444,468.321533203125 444,469.321533203125 444,469.321533203125 444,469.321533203125 444,470.321533203125 444,470.321533203125 444,470.321533203125 444,470.321533203125 444,471.321533203125 444,471.321533203125 444,471.321533203125 444,472.321533203125 444,472.321533203125 444,473.321533203125 444,473.321533203125 " style="color: rgb(249, 245, 241);"/><path fill="#e9987c" fill-opacity="1" stroke="#e9987c" stroke-opacity="1" stroke-width="1" stroke-dasharray="none" stroke-linejoin="miter" stroke-linecap="butt" stroke-dashoffset="" fill-rule="nonzero" opacity="1" marker-start="" marker-mid="" marker-end="" d="M475,345.9999997615814 C475,342.1325965783873 479.13950260238755,339 484.24999964237213,339 C489.3604966823567,339 493.49999928474426,342.1325965783873 493.49999928474426,345.9999997615814 C493.49999928474426,349.86740294477556 489.3604966823567,352.99999952316284 484.24999964237213,352.99999952316284 C479.13950260238755,352.99999952316284 475,349.86740294477556 475,345.9999997615814 z" id="svg_10" class=""/><path fill="#e9987c" fill-opacity="1" stroke="#e9987c" stroke-opacity="1" stroke-width="1" stroke-dasharray="none" stroke-linejoin="miter" stroke-linecap="butt" stroke-dashoffset="" fill-rule="nonzero" opacity="1" marker-start="" marker-mid="" marker-end="" d="M475,345.9999997615814 C475,342.1325965783873 479.13950260238755,339 484.24999964237213,339 C489.3604966823567,339 493.49999928474426,342.1325965783873 493.49999928474426,345.9999997615814 C493.49999928474426,349.86740294477556 489.3604966823567,352.99999952316284 484.24999964237213,352.99999952316284 C479.13950260238755,352.99999952316284 475,349.86740294477556 475,345.9999997615814 z" class="" id="svg_37"/><path fill="#e9987c" fill-opacity="1" stroke="#e9987c" stroke-opacity="1" stroke-width="1" stroke-dasharray="none" stroke-linejoin="miter" stroke-linecap="butt" stroke-dashoffset="" fill-rule="nonzero" opacity="1" marker-start="" marker-mid="" marker-end="" d="M475,345.9999997615814 C475,342.1325965783873 479.13950260238755,339 484.24999964237213,339 C489.3604966823567,339 493.49999928474426,342.1325965783873 493.49999928474426,345.9999997615814 C493.49999928474426,349.86740294477556 489.3604966823567,352.99999952316284 484.24999964237213,352.99999952316284 C479.13950260238755,352.99999952316284 475,349.86740294477556 475,345.9999997615814 z" class="" id="svg_38" transform="translate(55,0.5) "/></g></svg>